<?xml version="1.0" encoding="UTF-8" standalone="no"?>
<!-- Created with Inkscape (http://www.inkscape.org/) -->

<svg
   xmlns:dc="http://purl.org/dc/elements/1.1/"
   xmlns:cc="http://creativecommons.org/ns#"
   xmlns:rdf="http://www.w3.org/1999/02/22-rdf-syntax-ns#"
   xmlns:svg="http://www.w3.org/2000/svg"
   xmlns="http://www.w3.org/2000/svg"
   xmlns:sodipodi="http://sodipodi.sourceforge.net/DTD/sodipodi-0.dtd"
   xmlns:inkscape="http://www.inkscape.org/namespaces/inkscape"
   version="1.1"
   id="svg2"
   xml:space="preserve"
   width="200"
   height="200"
   viewBox="0 0 200 200"
   sodipodi:docname="taslak.svg"
   inkscape:version="0.92.4 5da689c313, 2019-01-14"><metadata
     id="metadata8"><rdf:RDF><cc:Work
         rdf:about=""><dc:format>image/svg+xml</dc:format><dc:type
           rdf:resource="http://purl.org/dc/dcmitype/StillImage" /><dc:title></dc:title></cc:Work></rdf:RDF></metadata><defs
     id="defs6"><clipPath
       clipPathUnits="userSpaceOnUse"
       id="clipPath90"><path
         d="M 0,792 H 612 V 0 H 0 Z"
         id="path88"
         inkscape:connector-curvature="0" /></clipPath><clipPath
       clipPathUnits="userSpaceOnUse"
       id="clipPath226"><path
         d="m 148.01,384.28 h 311.2 V 114.93 h -311.2 z"
         id="path224"
         inkscape:connector-curvature="0" /></clipPath></defs><sodipodi:namedview
     pagecolor="#ffffff"
     bordercolor="#666666"
     borderopacity="1"
     objecttolerance="10"
     gridtolerance="10"
     guidetolerance="10"
     inkscape:pageopacity="0"
     inkscape:pageshadow="2"
     inkscape:window-width="1920"
     inkscape:window-height="1040"
     id="namedview4"
     showgrid="false"
     showguides="true"
     inkscape:guide-bbox="true"
     inkscape:zoom="2.9627774"
     inkscape:cx="48.323797"
     inkscape:cy="77.531151"
     inkscape:window-x="0"
     inkscape:window-y="0"
     inkscape:window-maximized="1"
     inkscape:current-layer="g10"><sodipodi:guide
       position="-113.06958,99.906256"
       orientation="0,1"
       id="guide1071"
       inkscape:locked="false" /><sodipodi:guide
       position="99.906256,204.87533"
       orientation="1,0"
       id="guide1073"
       inkscape:locked="false" /></sodipodi:namedview><g
     id="g10"
     inkscape:groupmode="layer"
     inkscape:label="Arıcılık ai"
     transform="matrix(1.3333333,0,0,-1.3333333,0,200)"><g
       transform="matrix(0.60069004,0,0,0.60069004,-103.20093,-290.23725)"
       id="g1354"
       style="stroke-width:1.66475213"><g
         transform="translate(388.3276,607.4048)"
         id="g20"
         style="stroke-width:1.66475213"><path
           inkscape:connector-curvature="0"
           id="path22"
           style="fill:#044880;fill-opacity:1;fill-rule:nonzero;stroke:none;stroke-width:1.66475213"
           d="m 0,0 c 0,-50.971 -41.32,-92.292 -92.292,-92.292 -50.97,0 -92.291,41.321 -92.291,92.292 0,50.971 41.321,92.292 92.291,92.292 C -41.32,92.292 0,50.971 0,0" /></g><g
         transform="translate(315.9624,628.4111)"
         id="g24"
         style="stroke-width:1.66475213"><path
           inkscape:connector-curvature="0"
           id="path26"
           style="fill:#e9c203;fill-opacity:1;fill-rule:nonzero;stroke:none;stroke-width:1.66475213"
           d="m 0,0 v -12.568 l 5.191,-5.192 4.061,-0.172 -6.504,6.503 v 9.875 H 27.785 L 11.367,-18.021 15.092,-18.179 34.406,1.194 H 1.545 V 0 Z" /></g><g
         transform="translate(315.1421,626.8896)"
         id="g28"
         style="stroke-width:1.66475213"><path
           inkscape:connector-curvature="0"
           id="path30"
           style="fill:#e9c203;fill-opacity:1;fill-rule:nonzero;stroke:none;stroke-width:1.66475213"
           d="m 0,0 h -11.773 l -7.3,6.371 -7.318,-6.493 h -11.731 v -11.507 l -3.886,-4.517 1.641,-2.306 4.993,5.803 v 9.779 h 10.027 l 6.289,5.58 6.255,-5.458 h 10.055 v -9.774 l 4.91,-5.928 v 10e-4 l 1.66,2.303 L 0,-11.532 Z" /></g><g
         transform="translate(322.7534,634.5151)"
         id="g32"
         style="stroke-width:1.66475213"><path
           inkscape:connector-curvature="0"
           id="path34"
           style="fill:#e9c203;fill-opacity:1;fill-rule:nonzero;stroke:none;stroke-width:1.66475213"
           d="M 0,0 V 26.11 L 11.988,38.053 30.408,30.476 38.201,12.234 26.111,0 Z M 41.453,11.615 32.494,32.589 11.342,41.29 -2.748,27.252 V -2.749 h 30.006 z" /></g><g
         transform="translate(354.2632,626.8525)"
         id="g36"
         style="stroke-width:1.66475213"><path
           inkscape:connector-curvature="0"
           id="path38"
           style="fill:#e9c203;fill-opacity:1;fill-rule:nonzero;stroke:none;stroke-width:1.66475213"
           d="m 0,0 16.863,-0.017 7.309,-18.608 3.002,-0.126 -8.438,21.48 -19.873,0.02 -19.463,-19.479 3.727,-0.158 z" /></g><g
         transform="translate(238.3711,664.9907)"
         id="g40"
         style="stroke-width:1.66475213"><path
           inkscape:connector-curvature="0"
           id="path42"
           style="fill:#e9c203;fill-opacity:1;fill-rule:nonzero;stroke:none;stroke-width:1.66475213"
           d="M 0,0 18.42,7.578 30.406,-4.365 V -30.476 H 4.297 l -12.091,12.234 z m 33.154,-33.224 v 30 L 19.065,10.814 -2.085,2.113 -11.046,-18.86 3.15,-33.224 Z" /></g><g
         transform="translate(213.8145,608.4702)"
         id="g44"
         style="stroke-width:1.66475213"><path
           inkscape:connector-curvature="0"
           id="path46"
           style="fill:#e9c203;fill-opacity:1;fill-rule:nonzero;stroke:none;stroke-width:1.66475213"
           d="M 0,0 7.232,18.295 H 23.89 L 40.713,1.56 44.464,1.704 25.024,21.043 H 5.363 l -8.427,-21.317 0.11,-0.043 -0.01,0.203 z" /></g><g
         transform="translate(276.9595,666.1362)"
         id="g48"
         style="stroke-width:1.66475213"><path
           inkscape:connector-curvature="0"
           id="path50"
           style="fill:#e9c203;fill-opacity:1;fill-rule:nonzero;stroke:none;stroke-width:1.66475213"
           d="m 0,0 0.018,16.863 18.923,7.433 18.83,-7.63 V 0 L 18.944,-18.926 Z M 40.519,-1.134 V 18.518 L 18.958,27.255 -2.729,18.737 -2.75,-1.138 18.949,-22.816 Z" /></g><g
         transform="translate(248.2202,626.8345)"
         id="g52"
         style="stroke-width:1.66475213"><path
           inkscape:connector-curvature="0"
           id="path54"
           style="fill:#e9c203;fill-opacity:1;fill-rule:nonzero;stroke:none;stroke-width:1.66475213"
           d="m 0,0 h 25.038 v -9.874 l -6.46,-6.46 4.042,0.155 5.166,5.166 V 1.577 H 25.984 V 2.748 H -6.621 l 19.252,-19.31 3.738,0.144 z" /></g><g
         transform="translate(276.9521,656.1968)"
         id="g56"
         style="stroke-width:1.66475213"><path
           inkscape:connector-curvature="0"
           id="path58"
           style="fill:#e9c203;fill-opacity:1;fill-rule:nonzero;stroke:none;stroke-width:1.66475213"
           d="M 0,0 17.482,-17.43 9.875,-25.038 H 0 Z M 37.807,0 V -25.038 H 27.93 l -7.606,7.608 z M -0.946,-27.786 h 11.959 l 7.89,7.89 7.89,-7.89 H 39.01 v 1.195 h 1.545 V 6.621 L 18.903,-14.966 -2.748,6.621 v -33.235 h 1.802 z" /></g><path
         inkscape:connector-curvature="0"
         id="path60"
         style="fill:#e9c203;fill-opacity:1;fill-rule:nonzero;stroke:none;stroke-width:1.66475213"
         d="m 315.962,628.411 h 1.545 v 1.194 h -1.545 z" /><path
         inkscape:connector-curvature="0"
         id="path62"
         style="fill:#e9c203;fill-opacity:1;fill-rule:nonzero;stroke:none;stroke-width:1.66475213"
         d="m 276.006,629.583 h -1.802 v -1.171 h 1.802 z" /><g
         transform="translate(296.0361,726.3652)"
         id="g64"
         style="stroke-width:1.66475213"><path
           inkscape:connector-curvature="0"
           id="path66"
           style="fill:#044880;fill-opacity:1;fill-rule:nonzero;stroke:none;stroke-width:1.66475213"
           d="m 0,0 c -65.594,0 -118.96,-53.366 -118.96,-118.96 0,-65.596 53.366,-118.96 118.96,-118.96 65.594,0 118.959,53.364 118.959,118.96 C 118.959,-53.366 65.594,0 0,0 m 0,-240.695 c -67.125,0 -121.735,54.61 -121.735,121.735 0,67.124 54.61,121.734 121.735,121.734 67.125,0 121.735,-54.61 121.735,-121.734 0,-67.125 -54.61,-121.735 -121.735,-121.735" /></g><g
         transform="translate(339.1245,507.9243)"
         id="g68"
         style="stroke-width:1.66475213"><path
           inkscape:connector-curvature="0"
           id="path70"
           style="fill:#55c5cf;fill-opacity:1;fill-rule:nonzero;stroke:none;stroke-width:1.66475213"
           d="M 0,0 2.588,1.163 -0.617,4.812 Z" /></g><g
         transform="translate(188.1938,619.8027)"
         id="g72"
         style="stroke-width:1.66475213"><path
           inkscape:connector-curvature="0"
           id="path74"
           style="fill:#55c5cf;fill-opacity:1;fill-rule:nonzero;stroke:none;stroke-width:1.66475213"
           d="M 0,0 C -0.374,0.037 -0.678,-0.056 -0.912,-0.278 -1.146,-0.5 -1.292,-0.913 -1.351,-1.514 l -0.172,-1.754 2.438,-0.237 0.168,1.727 C 1.144,-1.159 1.08,-0.718 0.89,-0.454 0.7,-0.191 0.403,-0.04 0,0" /></g><g
         transform="translate(239.9487,520.6108)"
         id="g76"
         style="stroke-width:1.66475213"><path
           inkscape:connector-curvature="0"
           id="path78"
           style="fill:#55c5cf;fill-opacity:1;fill-rule:nonzero;stroke:none;stroke-width:1.66475213"
           d="m 0,0 -0.838,0.536 -3.797,-5.947 0.824,-0.526 c 0.704,-0.448 1.252,-0.689 1.649,-0.723 0.397,-0.034 0.803,0.09 1.22,0.37 0.416,0.282 0.902,0.857 1.458,1.729 0.737,1.153 1.052,2.063 0.948,2.728 C 1.359,-1.167 0.872,-0.556 0,0" /></g><g
         transform="translate(193.1968,619.8267)"
         id="g80"
         style="stroke-width:1.66475213"><path
           inkscape:connector-curvature="0"
           id="path82"
           style="fill:#55c5cf;fill-opacity:1;fill-rule:nonzero;stroke:none;stroke-width:1.66475213"
           d="m 0,0 c -0.38,0.037 -0.699,-0.072 -0.957,-0.327 -0.258,-0.255 -0.421,-0.73 -0.489,-1.425 l -0.197,-2.017 2.604,-0.254 0.197,2.024 C 1.225,-1.314 1.151,-0.82 0.936,-0.516 0.721,-0.212 0.409,-0.04 0,0" /></g><g
         transform="translate(374.7808,680.2412)"
         id="g84"
         style="stroke-width:1.66475213"><path
           inkscape:connector-curvature="0"
           id="path86"
           style="fill:#55c5cf;fill-opacity:1;fill-rule:nonzero;stroke:none;stroke-width:1.66475213"
           d="M 0,0 C 0.221,-0.156 0.467,-0.22 0.74,-0.192 1.014,-0.165 1.252,-0.055 1.457,0.139 1.76,0.425 1.902,0.741 1.883,1.086 1.863,1.432 1.604,1.869 1.104,2.398 L -0.1,3.672 -2.008,1.87 -0.854,0.647 C -0.727,0.515 -0.443,0.299 0,0" /></g><g
         transform="translate(277.1958,714.7568)"
         id="g88"
         style="stroke-width:1.66475213"><path
           inkscape:connector-curvature="0"
           id="path90"
           style="fill:#55c5cf;fill-opacity:1;fill-rule:nonzero;stroke:none;stroke-width:1.66475213"
           d="m 0,0 -0.594,-4.815 2.795,0.486 z" /></g><g
         transform="translate(196.1484,649.7236)"
         id="g92"
         style="stroke-width:1.66475213"><path
           inkscape:connector-curvature="0"
           id="path94"
           style="fill:#55c5cf;fill-opacity:1;fill-rule:nonzero;stroke:none;stroke-width:1.66475213"
           d="M 0,0 C -0.386,0.155 -0.732,0.152 -1.039,-0.009 -1.344,-0.171 -1.632,-0.59 -1.904,-1.266 l -0.655,-1.626 2.435,-0.98 0.628,1.561 c 0.068,0.169 0.145,0.518 0.231,1.046 C 0.785,-1 0.74,-0.75 0.601,-0.513 0.462,-0.276 0.262,-0.105 0,0" /></g><g
         transform="translate(209.3428,673.4648)"
         id="g96"
         style="stroke-width:1.66475213"><path
           inkscape:connector-curvature="0"
           id="path98"
           style="fill:#55c5cf;fill-opacity:1;fill-rule:nonzero;stroke:none;stroke-width:1.66475213"
           d="m 0,0 2.833,-3.938 1.722,2.254 z" /></g><g
         transform="translate(264.5884,704.8306)"
         id="g100"
         style="stroke-width:1.66475213"><path
           inkscape:connector-curvature="0"
           id="path102"
           style="fill:#55c5cf;fill-opacity:1;fill-rule:nonzero;stroke:none;stroke-width:1.66475213"
           d="M 0,0 C 0.795,0.25 1.333,0.517 1.614,0.799 1.895,1.082 2.06,1.473 2.113,1.972 2.164,2.472 2.036,3.214 1.724,4.2 1.313,5.505 0.819,6.332 0.242,6.679 -0.336,7.026 -1.117,7.044 -2.103,6.734 l -0.949,-0.298 2.12,-6.729 z" /></g><g
         transform="translate(408.8374,615.8262)"
         id="g104"
         style="stroke-width:1.66475213"><path
           inkscape:connector-curvature="0"
           id="path106"
           style="fill:#55c5cf;fill-opacity:1;fill-rule:nonzero;stroke:none;stroke-width:1.66475213"
           d="M 0,0 2.639,0.163 2.809,-2.598 0.17,-2.76 Z m -0.27,-21.708 -12.851,1.269 0.394,3.98 12.85,-1.27 z m -1.654,-11.101 c -0.471,-2.145 -1.211,-3.54 -2.219,-4.183 -1.007,-0.645 -2.16,-0.881 -3.457,-0.71 l 0.584,3.759 c 0.62,-0.053 1.116,0.01 1.485,0.187 0.597,0.29 0.98,0.807 1.144,1.553 0.121,0.555 0.086,1.013 -0.109,1.372 -0.195,0.358 -0.465,0.575 -0.809,0.651 -0.326,0.071 -0.65,-0.007 -0.97,-0.237 -0.323,-0.23 -0.713,-0.842 -1.17,-1.835 -0.762,-1.625 -1.539,-2.731 -2.336,-3.319 -0.799,-0.595 -1.692,-0.783 -2.678,-0.566 -0.646,0.143 -1.219,0.465 -1.713,0.968 -0.492,0.502 -0.822,1.166 -0.984,1.993 -0.164,0.826 -0.104,1.897 0.185,3.209 0.356,1.612 0.926,2.775 1.711,3.489 0.785,0.714 1.85,1.008 3.192,0.88 l -0.594,-3.72 c -0.588,0.028 -1.045,-0.086 -1.373,-0.343 -0.326,-0.255 -0.551,-0.658 -0.672,-1.209 -0.1,-0.453 -0.078,-0.816 0.062,-1.087 0.143,-0.272 0.352,-0.437 0.627,-0.498 0.2,-0.044 0.403,0.011 0.604,0.164 0.207,0.148 0.457,0.549 0.752,1.206 0.742,1.622 1.381,2.761 1.92,3.415 0.537,0.654 1.121,1.087 1.752,1.301 0.629,0.213 1.289,0.244 1.976,0.093 0.809,-0.178 1.506,-0.566 2.09,-1.163 0.584,-0.598 0.963,-1.336 1.139,-2.217 0.178,-0.881 0.129,-1.931 -0.139,-3.153 m -7.031,-21.254 -12.045,4.648 3.85,9.975 2.572,-0.992 -2.412,-6.245 1.916,-0.739 2.234,5.793 2.457,-0.948 -2.234,-5.793 2.375,-0.917 2.478,6.426 2.729,-1.053 z m -6.463,-12.313 -8.439,4.828 -2.02,-3.533 -2.768,1.584 6.022,10.528 2.768,-1.583 -2.02,-3.532 8.439,-4.828 z m -10.32,-14.694 -10.244,7.859 2.429,3.167 7.721,-5.926 3.791,4.941 2.521,-1.935 z m -6.826,-7.098 c -0.362,-0.743 -0.938,-1.489 -1.723,-2.239 -0.455,-0.432 -0.983,-0.873 -1.58,-1.322 -0.6,-0.448 -1.17,-0.751 -1.711,-0.906 -0.541,-0.155 -1.129,-0.201 -1.76,-0.139 -0.631,0.063 -1.178,0.227 -1.641,0.491 -0.746,0.424 -1.335,0.866 -1.773,1.326 l -5.307,5.569 2.883,2.746 5.432,-5.702 c 0.486,-0.51 1.008,-0.774 1.562,-0.791 0.557,-0.017 1.084,0.213 1.586,0.691 0.498,0.474 0.754,0.986 0.768,1.538 0.014,0.552 -0.227,1.088 -0.721,1.605 l -5.433,5.703 2.882,2.746 5.307,-5.57 c 0.525,-0.552 0.938,-1.156 1.232,-1.81 0.295,-0.655 0.434,-1.341 0.416,-2.059 -0.017,-0.717 -0.156,-1.343 -0.419,-1.877 m -15.159,-13.043 -5.216,2.9 -0.512,-2.941 1.752,-2.618 -3.317,-2.22 -7.179,10.733 3.316,2.217 2.713,-4.055 0.76,6.381 4.412,2.949 -1.207,-6.67 8.562,-3.943 z m -16.041,-9.414 -1.463,1.678 -4.13,-1.857 0.3,-2.202 -3.716,-1.671 -0.868,13.767 3.969,1.785 9.721,-9.787 z m -17.32,-6.6 -3.842,-1.142 -3.683,12.375 9.453,2.815 0.793,-2.66 -5.614,-1.671 0.643,-2.16 4.795,1.426 0.744,-2.499 -4.795,-1.426 z m -22.391,-4.154 -3.029,5.142 -1.932,-2.278 0.186,-3.145 -3.982,-0.233 -0.759,12.889 3.983,0.234 0.285,-4.871 3.887,5.117 5.297,0.311 -4.418,-5.142 5.387,-7.736 z m 58.799,40.344 -1.658,-1.579 -1.52,1.594 1.659,1.58 z m -0.472,2.592 1.675,1.597 1.52,-1.594 -1.678,-1.598 z M -207.68,-8.422 c 0,52.21 42.476,94.686 94.687,94.686 52.21,0 94.686,-42.476 94.686,-94.686 0,-52.211 -42.476,-94.687 -94.686,-94.687 -52.211,0 -94.687,42.476 -94.687,94.687 m 86.65,-99.286 0.179,2.636 2.76,-0.186 -0.18,-2.638 z m 2.423,-13.892 -3.99,0.27 0.872,12.883 3.99,-0.27 z m -9.139,0.712 -10.052,1.826 2.307,12.705 3.926,-0.714 -1.739,-9.575 6.126,-1.113 z m -13.271,12.166 -3.633,0.996 c 0.091,0.582 0.028,1.05 -0.19,1.403 -0.22,0.353 -0.596,0.62 -1.129,0.8 -0.44,0.148 -0.802,0.167 -1.087,0.057 -0.287,-0.112 -0.474,-0.301 -0.565,-0.568 -0.066,-0.195 -0.032,-0.402 0.098,-0.619 0.124,-0.222 0.496,-0.514 1.117,-0.879 1.531,-0.915 2.593,-1.675 3.185,-2.28 0.592,-0.607 0.958,-1.234 1.101,-1.884 0.144,-0.65 0.102,-1.309 -0.123,-1.976 -0.266,-0.785 -0.727,-1.434 -1.384,-1.948 -0.658,-0.517 -1.434,-0.813 -2.328,-0.892 -0.895,-0.08 -1.935,0.081 -3.12,0.483 -2.08,0.703 -3.385,1.59 -3.915,2.662 -0.531,1.071 -0.64,2.242 -0.328,3.513 l 3.672,-0.99 c -0.12,-0.611 -0.111,-1.109 0.024,-1.496 0.223,-0.627 0.695,-1.062 1.418,-1.306 0.54,-0.183 0.998,-0.197 1.376,-0.043 0.377,0.155 0.623,0.398 0.737,0.732 0.106,0.318 0.063,0.648 -0.131,0.992 -0.193,0.345 -0.758,0.8 -1.696,1.363 -1.532,0.934 -2.547,1.829 -3.044,2.685 -0.503,0.858 -0.594,1.766 -0.27,2.722 0.212,0.629 0.596,1.161 1.149,1.597 0.553,0.436 1.25,0.69 2.088,0.763 0.84,0.073 1.897,-0.107 3.171,-0.537 1.564,-0.528 2.657,-1.222 3.281,-2.081 0.624,-0.858 0.799,-1.947 0.526,-3.269 m -15.838,10.92 1.136,2.386 2.497,-1.189 -1.137,-2.386 z m -2.862,-13.807 -3.61,1.72 5.554,11.657 3.61,-1.721 z m -4.157,12.022 c -0.244,-0.777 -0.605,-1.537 -1.079,-2.279 -0.742,-1.163 -1.45,-1.98 -2.124,-2.452 -0.674,-0.472 -1.384,-0.775 -2.131,-0.908 -0.747,-0.132 -1.436,-0.098 -2.066,0.102 -0.865,0.273 -1.596,0.601 -2.195,0.984 l -4.996,3.189 6.948,10.883 4.997,-3.19 c 0.985,-0.628 1.695,-1.27 2.131,-1.925 0.435,-0.653 0.691,-1.357 0.768,-2.109 0.077,-0.753 -0.007,-1.518 -0.253,-2.295 m -23.039,5.414 1.162,8.502 -4.751,-5.262 -2.786,2.514 8.653,9.585 2.766,-2.497 -1.179,-8.561 4.787,5.304 2.792,-2.521 -8.653,-9.584 z m -8.487,12.298 -2.282,-1.829 -6.811,8.492 10.073,8.079 6.69,-8.342 -2.15,-1.724 -4.189,5.221 -1.6,-1.283 3.884,-4.844 -2.055,-1.648 -3.885,4.844 -1.985,-1.593 z m -15.013,15.833 4.547,2.571 -2.147,3.795 -4.546,-2.572 -1.964,3.473 11.238,6.357 1.964,-3.472 -3.932,-2.225 2.146,-3.795 3.933,2.225 1.973,-3.487 -11.237,-6.358 z m 6.079,24.301 0.777,-2.182 -2.074,-0.738 -0.777,2.182 z m -2.558,0.623 -0.768,2.158 2.075,0.737 0.768,-2.158 z m -9.905,-9.305 c -0.648,0.308 -1.163,0.691 -1.543,1.148 -0.531,0.633 -0.979,1.462 -1.343,2.485 -0.211,0.592 -0.399,1.253 -0.565,1.982 -0.165,0.73 -0.209,1.373 -0.13,1.932 0.079,0.556 0.275,1.111 0.59,1.663 0.314,0.55 0.687,0.984 1.116,1.299 0.692,0.508 1.336,0.867 1.933,1.08 l 7.248,2.578 1.334,-3.751 -7.42,-2.639 c -0.664,-0.236 -1.117,-0.605 -1.359,-1.105 -0.242,-0.501 -0.248,-1.077 -0.015,-1.73 0.23,-0.647 0.595,-1.09 1.093,-1.327 0.499,-0.237 1.085,-0.236 1.759,0.004 l 7.421,2.639 1.334,-3.75 -7.248,-2.579 c -0.719,-0.255 -1.437,-0.384 -2.155,-0.387 -0.719,-0.003 -1.402,0.149 -2.05,0.458 m -7.284,20.167 9.726,1.542 -10.12,0.945 -0.462,2.922 9.332,4.023 -9.726,-1.541 -0.511,3.227 12.753,2.02 0.821,-5.182 -7.443,-3.228 8.075,-0.755 0.82,-5.18 -12.753,-2.02 z m -0.354,34.648 c 0.122,1.238 0.521,2.159 1.2,2.763 0.679,0.603 1.47,0.86 2.376,0.772 0.759,-0.074 1.388,-0.375 1.885,-0.902 0.332,-0.35 0.573,-0.84 0.724,-1.469 0.313,0.902 0.76,1.544 1.343,1.927 0.584,0.382 1.284,0.534 2.103,0.454 0.665,-0.066 1.249,-0.279 1.751,-0.641 0.501,-0.361 0.881,-0.826 1.138,-1.394 0.16,-0.352 0.251,-0.869 0.273,-1.549 0.03,-0.906 0.03,-1.504 0.002,-1.797 l -0.671,-6.855 -12.851,1.257 z m 1.918,11.537 7.656,-1.852 c 0.684,-0.166 1.264,-0.105 1.74,0.181 0.477,0.286 0.798,0.766 0.961,1.44 0.16,0.667 0.098,1.237 -0.19,1.708 -0.287,0.471 -0.778,0.791 -1.474,0.959 l -7.655,1.853 0.937,3.869 7.477,-1.809 c 0.741,-0.179 1.413,-0.465 2.016,-0.855 0.603,-0.391 1.091,-0.892 1.465,-1.506 0.374,-0.612 0.595,-1.214 0.663,-1.805 0.097,-0.82 0.018,-1.758 -0.237,-2.815 -0.148,-0.61 -0.352,-1.266 -0.612,-1.967 -0.261,-0.702 -0.576,-1.265 -0.947,-1.687 -0.371,-0.425 -0.84,-0.781 -1.405,-1.07 -0.565,-0.289 -1.114,-0.448 -1.645,-0.476 -0.857,-0.047 -1.593,0.004 -2.209,0.153 l -7.477,1.81 z m 5.837,18.502 c 0.461,1.144 0.911,1.979 1.35,2.504 0.44,0.526 1,0.867 1.68,1.023 0.68,0.157 1.402,0.082 2.164,-0.225 0.664,-0.268 1.181,-0.64 1.549,-1.117 0.368,-0.478 0.602,-1.025 0.701,-1.641 0.064,-0.393 0.047,-0.89 -0.049,-1.491 0.325,0.381 0.601,0.643 0.829,0.786 0.154,0.096 0.443,0.209 0.869,0.338 0.425,0.129 0.743,0.202 0.953,0.219 l 4.192,0.395 -1.684,-4.182 -4.456,-0.505 c -0.575,-0.059 -0.972,-0.159 -1.193,-0.298 -0.293,-0.193 -0.507,-0.458 -0.643,-0.795 l -0.132,-0.327 4.862,-1.957 -1.498,-3.718 -11.977,4.822 z m 4.912,9.827 c 0.089,0.837 0.466,1.841 1.131,3.009 0.816,1.434 1.706,2.375 2.668,2.824 0.962,0.449 2.065,0.414 3.31,-0.106 l -1.67,-3.377 c -0.555,0.201 -1.026,0.228 -1.415,0.08 -0.387,-0.147 -0.72,-0.465 -0.999,-0.955 -0.23,-0.403 -0.318,-0.755 -0.262,-1.057 0.054,-0.301 0.204,-0.522 0.448,-0.661 0.18,-0.102 0.388,-0.109 0.626,-0.022 0.242,0.078 0.6,0.388 1.077,0.927 1.189,1.33 2.138,2.228 2.845,2.693 0.708,0.465 1.394,0.706 2.059,0.723 0.665,0.017 1.304,-0.149 1.916,-0.499 0.719,-0.409 1.269,-0.986 1.65,-1.73 0.381,-0.743 0.524,-1.562 0.431,-2.455 -0.093,-0.893 -0.449,-1.882 -1.068,-2.97 -1.087,-1.908 -2.207,-3.02 -3.36,-3.336 -1.153,-0.317 -2.324,-0.201 -3.512,0.347 l 1.672,3.417 c 0.576,-0.234 1.067,-0.321 1.473,-0.261 0.658,0.098 1.175,0.479 1.553,1.142 0.282,0.495 0.383,0.943 0.304,1.343 -0.08,0.4 -0.274,0.687 -0.579,0.862 -0.291,0.165 -0.624,0.186 -0.999,0.062 -0.375,-0.125 -0.928,-0.593 -1.661,-1.405 -1.208,-1.326 -2.28,-2.152 -3.215,-2.478 -0.939,-0.33 -1.846,-0.246 -2.724,0.254 -0.577,0.329 -1.027,0.806 -1.348,1.432 -0.323,0.626 -0.439,1.359 -0.351,2.197 m 10.963,17.18 13.208,-3.979 -2.535,-3.32 -2.087,0.779 -2.749,-3.6 1.313,-1.794 -2.472,-3.237 -7.319,11.692 z m 12.763,13.581 5.16,-5.95 c 0.462,-0.532 0.969,-0.82 1.524,-0.863 0.554,-0.043 1.093,0.162 1.616,0.616 0.52,0.45 0.799,0.95 0.838,1.501 0.039,0.55 -0.176,1.096 -0.644,1.637 l -5.16,5.95 3.007,2.608 5.04,-5.812 c 0.5,-0.576 0.882,-1.198 1.147,-1.866 0.264,-0.668 0.37,-1.36 0.319,-2.076 -0.051,-0.716 -0.22,-1.334 -0.507,-1.855 -0.397,-0.725 -1.006,-1.443 -1.827,-2.155 -0.474,-0.412 -1.021,-0.827 -1.639,-1.248 -0.62,-0.42 -1.204,-0.695 -1.751,-0.824 -0.549,-0.13 -1.137,-0.149 -1.765,-0.057 -0.627,0.092 -1.166,0.282 -1.616,0.567 -0.724,0.459 -1.294,0.928 -1.709,1.407 l -5.04,5.812 z m 13.108,10.157 5.337,-8.139 5.207,3.415 1.744,-2.659 -8.544,-5.603 -7.081,10.797 z m 11.296,6.616 3.428,-7.09 c 0.307,-0.634 0.722,-1.044 1.245,-1.231 0.524,-0.186 1.098,-0.128 1.722,0.173 0.618,0.299 1.019,0.71 1.2,1.23 0.182,0.522 0.117,1.105 -0.194,1.749 l -3.429,7.09 3.584,1.733 3.349,-6.925 c 0.332,-0.687 0.539,-1.387 0.619,-2.101 0.081,-0.714 0.004,-1.409 -0.233,-2.088 -0.236,-0.678 -0.561,-1.23 -0.973,-1.658 -0.573,-0.596 -1.349,-1.131 -2.326,-1.604 -0.566,-0.273 -1.202,-0.532 -1.909,-0.776 -0.708,-0.244 -1.343,-0.357 -1.905,-0.34 -0.563,0.018 -1.136,0.153 -1.718,0.406 -0.582,0.254 -1.053,0.577 -1.412,0.97 -0.581,0.632 -1.008,1.233 -1.284,1.804 l -3.349,6.926 z m 17.306,7.019 c 1.114,0.351 2.063,0.483 2.844,0.397 0.78,-0.086 1.485,-0.341 2.111,-0.766 0.627,-0.424 1.159,-0.98 1.597,-1.667 0.437,-0.687 0.789,-1.451 1.054,-2.291 0.414,-1.316 0.586,-2.383 0.515,-3.203 -0.071,-0.82 -0.296,-1.558 -0.673,-2.216 -0.378,-0.658 -0.846,-1.164 -1.406,-1.519 -0.764,-0.487 -1.484,-0.837 -2.162,-1.05 l -5.654,-1.782 -3.88,12.315 z m 12.02,3.052 4.287,0.747 6.996,-11.888 -4.116,-0.718 -1.002,1.99 -4.463,-0.777 -0.254,-2.208 -4.013,-0.699 z m 12.47,-0.957 c 0.55,1.059 1.379,1.874 2.485,2.447 0.861,0.442 2.032,0.685 3.511,0.727 1.427,0.041 2.497,-0.058 3.212,-0.295 0.715,-0.238 1.313,-0.621 1.796,-1.151 0.483,-0.529 0.852,-1.207 1.111,-2.034 l -3.827,-0.798 c -0.173,0.483 -0.452,0.848 -0.839,1.095 -0.385,0.248 -0.872,0.362 -1.459,0.346 -0.874,-0.026 -1.562,-0.349 -2.065,-0.972 -0.501,-0.623 -0.733,-1.591 -0.695,-2.906 0.04,-1.397 0.332,-2.387 0.875,-2.97 0.542,-0.584 1.283,-0.862 2.222,-0.835 0.446,0.013 0.87,0.09 1.271,0.231 0.401,0.14 0.858,0.374 1.371,0.7 l -0.034,1.215 -2.668,-0.077 -0.078,2.685 6.163,0.178 0.16,-5.502 c -1.157,-0.839 -2.184,-1.416 -3.083,-1.732 -0.898,-0.317 -1.97,-0.494 -3.214,-0.53 -1.532,-0.044 -2.789,0.181 -3.769,0.675 -0.98,0.495 -1.751,1.251 -2.312,2.268 -0.562,1.018 -0.861,2.196 -0.9,3.535 -0.04,1.408 0.215,2.642 0.766,3.7 m 4.134,6.319 c 0.127,-0.337 0.302,-0.575 0.523,-0.712 0.221,-0.138 0.549,-0.2 0.983,-0.188 0.512,0.015 0.875,0.098 1.091,0.248 0.216,0.15 0.365,0.396 0.45,0.74 l 1.452,0.042 c -0.019,-0.559 -0.137,-1.031 -0.356,-1.416 -0.217,-0.385 -0.556,-0.699 -1.012,-0.941 -0.457,-0.243 -0.956,-0.372 -1.496,-0.387 -0.891,-0.026 -1.611,0.187 -2.159,0.638 -0.547,0.451 -0.877,1.095 -0.99,1.932 z m 17.63,-11.601 1.375,7.568 3.916,-0.711 -1.406,-7.749 c -0.127,-0.693 -0.034,-1.269 0.281,-1.728 0.312,-0.46 0.81,-0.752 1.492,-0.875 0.676,-0.123 1.24,-0.027 1.693,0.287 0.456,0.314 0.747,0.823 0.873,1.527 l 1.409,7.749 3.918,-0.712 -1.375,-7.568 c -0.137,-0.751 -0.383,-1.438 -0.739,-2.062 -0.355,-0.625 -0.828,-1.142 -1.418,-1.55 -0.589,-0.408 -1.177,-0.664 -1.763,-0.766 -0.815,-0.144 -1.756,-0.12 -2.824,0.074 -0.62,0.113 -1.286,0.279 -2,0.498 -0.715,0.219 -1.295,0.502 -1.739,0.848 -0.445,0.346 -0.828,0.793 -1.15,1.34 -0.32,0.548 -0.51,1.086 -0.57,1.616 -0.096,0.852 -0.086,1.59 0.027,2.214 m 5.025,9.976 2.254,-0.41 -0.394,-2.166 -2.252,0.409 z m 3.676,-0.667 2.279,-0.414 -0.394,-2.167 -2.279,0.414 z m 9.123,-5.066 3.525,-1.207 2.286,-8.333 2.312,6.758 3.559,-1.217 -4.18,-12.217 -3.559,1.219 -2.279,8.273 -2.295,-6.708 -3.551,1.215 z m 19.082,-7.488 -5.506,-11.678 -3.617,1.705 5.506,11.679 z m -1.574,4.53 2.502,-1.179 -1.127,-2.39 -2.502,1.18 z m 7.805,-7.83 -2.342,-9.451 7.277,6.452 3.461,-2.103 -10.803,-8.545 -3.695,2.246 2.537,13.567 z m 18.992,-13.583 -1.733,-2.143 -5.205,4.209 -1.291,-1.595 4.828,-3.905 -1.656,-2.047 -4.828,3.904 -1.6,-1.98 5.354,-4.33 -1.838,-2.274 -8.465,6.846 8.121,10.039 z m 7.502,-7.539 c 0.847,-0.896 1.418,-1.654 1.711,-2.273 0.295,-0.62 0.371,-1.27 0.228,-1.954 -0.142,-0.683 -0.512,-1.307 -1.109,-1.872 -0.522,-0.492 -1.076,-0.805 -1.662,-0.94 -0.588,-0.134 -1.184,-0.118 -1.785,0.049 -0.383,0.106 -0.827,0.329 -1.334,0.668 0.21,-0.455 0.334,-0.816 0.367,-1.082 0.023,-0.18 0.006,-0.49 -0.055,-0.93 -0.06,-0.441 -0.127,-0.76 -0.199,-0.957 l -1.393,-3.974 -3.095,3.277 1.402,4.26 c 0.187,0.547 0.262,0.95 0.228,1.209 -0.052,0.346 -0.203,0.651 -0.453,0.916 l -0.242,0.256 -3.81,-3.599 -2.75,2.913 9.384,8.867 z m 2.871,-8.595 c 0.539,0.387 1.16,0.596 1.865,0.628 0.703,0.032 1.418,-0.166 2.143,-0.596 0.724,-0.431 1.478,-1.191 2.263,-2.284 0.963,-1.339 1.448,-2.541 1.455,-3.601 0.006,-1.062 -0.486,-2.05 -1.476,-2.965 l -2.373,2.926 c 0.414,0.42 0.635,0.838 0.662,1.252 0.027,0.414 -0.123,0.849 -0.453,1.307 -0.27,0.377 -0.553,0.603 -0.85,0.679 -0.297,0.076 -0.56,0.032 -0.789,-0.132 -0.166,-0.12 -0.26,-0.307 -0.281,-0.56 -0.027,-0.252 0.103,-0.707 0.394,-1.365 0.713,-1.635 1.133,-2.872 1.262,-3.709 0.127,-0.838 0.061,-1.562 -0.201,-2.172 -0.264,-0.612 -0.68,-1.124 -1.252,-1.534 -0.672,-0.484 -1.426,-0.743 -2.26,-0.778 -0.836,-0.037 -1.64,0.174 -2.412,0.631 -0.773,0.457 -1.525,1.193 -2.254,2.209 -1.281,1.783 -1.826,3.265 -1.633,4.445 0.194,1.18 0.787,2.195 1.78,3.047 l 2.408,-2.944 c -0.451,-0.427 -0.736,-0.837 -0.85,-1.23 -0.185,-0.639 -0.054,-1.268 0.391,-1.888 0.332,-0.462 0.697,-0.741 1.094,-0.836 0.396,-0.094 0.738,-0.038 1.023,0.167 0.274,0.195 0.43,0.489 0.473,0.882 0.045,0.393 -0.151,1.091 -0.584,2.096 -0.701,1.651 -1.004,2.969 -0.91,3.955 0.089,0.99 0.545,1.78 1.365,2.37 m 13.123,-13.466 -11.186,-6.449 -1.998,3.464 11.188,6.449 z m 1.293,4.618 1.381,-2.396 -2.289,-1.32 -1.381,2.396 z m 2.418,-19.752 -1.668,3.712 -8.871,-3.986 -1.635,3.64 8.869,3.985 -1.668,3.712 2.908,1.307 4.971,-11.063 z m 7.103,-12.088 -2.64,-0.794 -1.924,6.411 -1.967,-0.59 1.787,-5.947 -2.523,-0.757 -1.785,5.946 -2.438,-0.733 1.981,-6.596 -2.799,-0.841 -3.133,10.426 12.365,3.715 z m 0.912,-5.923 C -2.27,12.043 -1.932,11.026 -1.717,9.699 -1.451,8.07 -1.551,6.78 -2.018,5.826 -2.484,4.873 -3.365,4.207 -4.66,3.829 l -0.822,3.677 c 0.558,0.192 0.941,0.468 1.152,0.826 0.209,0.358 0.268,0.815 0.178,1.371 -0.077,0.459 -0.229,0.787 -0.459,0.987 -0.235,0.201 -0.489,0.278 -0.768,0.233 C -5.58,10.89 -5.748,10.765 -5.879,10.547 -6.018,10.334 -6.102,9.868 -6.133,9.149 -6.225,7.368 -6.398,6.073 -6.656,5.267 -6.914,4.461 -7.297,3.842 -7.805,3.411 -8.311,2.98 -8.912,2.709 -9.607,2.596 c -0.819,-0.134 -1.608,-0.031 -2.372,0.309 -0.763,0.34 -1.388,0.887 -1.876,1.64 -0.489,0.753 -0.834,1.747 -1.036,2.981 -0.351,2.168 -0.179,3.737 0.518,4.707 0.699,0.971 1.684,1.617 2.951,1.936 l 0.846,-3.709 c -0.596,-0.18 -1.033,-0.421 -1.311,-0.722 -0.449,-0.489 -0.613,-1.111 -0.49,-1.864 0.092,-0.562 0.293,-0.975 0.607,-1.236 0.313,-0.261 0.643,-0.364 0.991,-0.307 0.332,0.054 0.603,0.247 0.816,0.58 0.215,0.332 0.352,1.044 0.41,2.136 0.108,1.79 0.422,3.106 0.948,3.947 0.521,0.847 1.281,1.351 2.279,1.514 0.654,0.106 1.303,0.017 1.947,-0.268 0.645,-0.284 1.195,-0.781 1.652,-1.489 m -10.837,-29.721 -0.272,-2.752 -2.631,0.26 0.272,2.752 z M -0.576,-3.397 -13.463,-4.191 -13.709,-0.2 -0.822,0.594 Z M -112.993,110.31 c -65.47,0 -118.733,-53.263 -118.733,-118.732 0,-65.47 53.263,-118.733 118.733,-118.733 65.47,0 118.733,53.263 118.733,118.733 0,65.469 -53.263,118.732 -118.733,118.732" /></g><g
         transform="translate(291.3652,527.3159)"
         id="g108"
         style="stroke-width:1.66475213"><path
           inkscape:connector-curvature="0"
           id="path110"
           style="fill:#ffffff;fill-opacity:1;fill-rule:nonzero;stroke:none;stroke-width:1.66475213"
           d="m 0,0 c 0.647,-0.009 1.401,-0.014 2.228,-0.014 3.252,0 7.24,0.076 9.885,0.211 l 1.685,16.684 2.057,0.355 c 2.803,0.484 5.584,1.153 8.266,1.989 l 1.988,0.62 9.178,-14.125 c 4.002,1.617 7.88,3.555 11.576,5.785 l -5.11,16.293 1.58,1.163 c 2.487,1.832 4.872,3.865 7.086,6.039 l 1.668,1.641 13.338,-9.804 c 3.26,3.62 6.2,7.537 8.772,11.684 l -11,14.065 0.709,1.526 c 0.844,1.818 2.429,5.973 3.193,7.971 0.291,0.761 0.496,1.296 0.559,1.444 l 0.754,1.784 15.558,-0.896 c 0.139,2.956 0.352,7.716 0.504,11.099 L 30.871,77.711 C 29.3,64.66 18.091,54.466 4.671,54.466 c -13.424,0 -24.635,10.199 -26.201,23.256 l -53.224,-1.969 c 0.167,-3.511 0.352,-7.599 0.468,-10.377 l 15.277,1.624 0.604,-2.276 c 0.918,-3.451 2.124,-6.838 3.587,-10.067 l 0.68,-1.505 -10.973,-14.22 c 2.593,-4.237 5.572,-8.239 8.887,-11.937 l 13.277,9.857 1.676,-1.662 c 2.47,-2.447 5.149,-4.711 7.964,-6.728 L -31.786,27.373 -36,10.607 c 3.71,-2.129 7.602,-3.971 11.61,-5.496 l 8.411,14.469 2.07,-0.615 C -11.008,18.106 -8.03,17.444 -5.058,17 l 1.937,-0.289 z m 2.228,-5.51 c -1.605,0 -3.732,0.017 -4.749,0.1 l -2.092,0.172 -3.198,17.12 c -1.867,0.334 -3.73,0.745 -5.571,1.23 l -8.552,-14.713 -2.141,0.748 c -5.762,2.009 -11.32,4.631 -16.518,7.791 l -1.732,1.053 4.303,17.119 c -1.872,1.419 -3.681,2.937 -5.408,4.538 l -13.453,-9.988 -1.677,1.762 c -4.697,4.94 -8.817,10.432 -12.245,16.326 l -0.928,1.598 11.24,14.567 c -0.984,2.319 -1.846,4.705 -2.578,7.128 l -16.518,-1.756 -0.078,2.976 c -0.042,1.656 -0.45,10.705 -0.711,16 l -0.137,2.78 62.284,2.387 1.641,-2.307 c 0.139,-11.379 9.881,-21.159 21.261,-21.159 11.379,0 21.129,9.782 21.268,21.163 l 1.66,2.303 62.611,-2.649 -0.123,-2.755 c -0.5,-11.215 -0.73,-16.222 -0.775,-16.743 l -0.225,-2.666 -17.054,0.982 c -0.67,-1.752 -1.653,-4.309 -2.461,-6.24 L 80.847,38.938 79.896,37.326 C 76.482,31.529 72.398,26.127 67.759,21.273 l -1.668,-1.746 -13.519,9.937 c -1.42,-1.305 -2.895,-2.555 -4.41,-3.737 L 53.373,9.111 51.601,7.979 C 46.435,4.677 40.904,1.917 35.162,-0.225 l -2.065,-0.77 -9.346,14.381 C 22.138,12.937 20.5,12.542 18.851,12.207 L 17.128,-4.845 14.937,-5.102 C 12.386,-5.401 5.938,-5.51 2.228,-5.51" /></g><text
         id="text114"
         style="font-variant:normal;font-weight:900;font-stretch:normal;font-size:9.61849976px;font-family:'Arial Black';-inkscape-font-specification:Arial-Black;writing-mode:lr-tb;fill:#ffffff;fill-opacity:1;fill-rule:nonzero;stroke:none;stroke-width:1.66475213"
         transform="matrix(1,0,0,-1,282.2085,604.124)"><tspan
           id="tspan112"
           sodipodi:role="line"
           y="0"
           x="0 7.0215049 14.04301 21.064514"
           style="stroke-width:1.66475213">1976</tspan></text>
</g></g></svg>